<svg version="1.1" viewBox="0.0 0.0 102.83464566929133 104.41994750656168" fill="none" stroke="none" stroke-linecap="square" stroke-miterlimit="10" xmlns:xlink="http://www.w3.org/1999/xlink" xmlns="http://www.w3.org/2000/svg"><clipPath id="p.0"><path d="m0 0l102.83465 0l0 104.419945l-102.83465 0l0 -104.419945z" clip-rule="nonzero"/></clipPath><g clip-path="url(#p.0)"><path fill="#000000" fill-opacity="0.0" d="m0 0l102.83465 0l0 104.419945l-102.83465 0z" fill-rule="evenodd"/><path fill="#000000" fill-opacity="0.0" d="m103.03215 27.575459l-47.81102 58.677166" fill-rule="evenodd"/><path stroke="#efefef" stroke-width="8.0" stroke-linejoin="round" stroke-linecap="butt" d="m103.03215 27.575459l-47.81102 58.677166" fill-rule="evenodd"/><path fill="#000000" fill-opacity="0.0" d="m55.457348 86.617455l-55.65354 -59.149605" fill-rule="evenodd"/><path stroke="#efefef" stroke-width="8.0" stroke-linejoin="round" stroke-linecap="butt" d="m55.457348 86.617455l-55.65354 -59.149605" fill-rule="evenodd"/><path fill="#efefef" d="m55.145004 83.52428l0 0c1.9917068 0 3.6063004 1.3960266 3.6063004 3.1181107l0 0c0 0.82697296 -0.37994766 1.620079 -1.0562592 2.2048416c-0.6763153 0.58475494 -1.5935898 0.91326904 -2.5500412 0.91326904l0 0c-1.991703 0 -3.6062965 -1.3960266 -3.6062965 -3.1181107l0 0c0 -1.722084 1.6145935 -3.1181107 3.6062965 -3.1181107z" fill-rule="evenodd"/><path stroke="#efefef" stroke-width="1.0" stroke-linejoin="round" stroke-linecap="butt" d="m55.145004 83.52428l0 0c1.9917068 0 3.6063004 1.3960266 3.6063004 3.1181107l0 0c0 0.82697296 -0.37994766 1.620079 -1.0562592 2.2048416c-0.6763153 0.58475494 -1.5935898 0.91326904 -2.5500412 0.91326904l0 0c-1.991703 0 -3.6062965 -1.3960266 -3.6062965 -3.1181107l0 0c0 -1.722084 1.6145935 -3.1181107 3.6062965 -3.1181107z" fill-rule="evenodd"/></g></svg>