<svg version="1.1" viewBox="0.0 0.0 102.83464566929133 104.41994750656168" fill="none" stroke="none" stroke-linecap="square" stroke-miterlimit="10" xmlns:xlink="http://www.w3.org/1999/xlink" xmlns="http://www.w3.org/2000/svg"><clipPath id="p.0"><path d="m0 0l102.83465 0l0 104.419945l-102.83465 0l0 -104.419945z" clip-rule="nonzero"/></clipPath><g clip-path="url(#p.0)"><path fill="#000000" fill-opacity="0.0" d="m0 0l102.83465 0l0 104.419945l-102.83465 0z" fill-rule="evenodd"/><path fill="#000000" fill-opacity="0.0" d="m22.122047 0l58.677162 47.811024" fill-rule="evenodd"/><path stroke="#000000" stroke-width="8.0" stroke-linejoin="round" stroke-linecap="butt" d="m22.122047 0l58.677162 47.811024" fill-rule="evenodd"/><path fill="#000000" fill-opacity="0.0" d="m81.16404 47.574802l-59.149605 55.653545" fill-rule="evenodd"/><path stroke="#000000" stroke-width="8.0" stroke-linejoin="round" stroke-linecap="butt" d="m81.16404 47.574802l-59.149605 55.653545" fill-rule="evenodd"/><path fill="#000000" d="m78.07087 47.887146l0 0c0 -1.991703 1.396019 -3.6063004 3.1181107 -3.6063004l0 0c0.82697296 0 1.6200714 0.37995148 2.204834 1.056263c0.58475494 0.6763115 0.91326904 1.5935898 0.91326904 2.5500374l0 0c0 1.991703 -1.396019 3.6063004 -3.118103 3.6063004l0 0c-1.7220917 0 -3.1181107 -1.6145973 -3.1181107 -3.6063004z" fill-rule="evenodd"/><path stroke="#000000" stroke-width="1.0" stroke-linejoin="round" stroke-linecap="butt" d="m78.07087 47.887146l0 0c0 -1.991703 1.396019 -3.6063004 3.1181107 -3.6063004l0 0c0.82697296 0 1.6200714 0.37995148 2.204834 1.056263c0.58475494 0.6763115 0.91326904 1.5935898 0.91326904 2.5500374l0 0c0 1.991703 -1.396019 3.6063004 -3.118103 3.6063004l0 0c-1.7220917 0 -3.1181107 -1.6145973 -3.1181107 -3.6063004z" fill-rule="evenodd"/></g></svg>