<svg version="1.1" viewBox="0.0 0.0 124.43832020997375 125.9737532808399" fill="none" stroke="none" stroke-linecap="square" stroke-miterlimit="10" xmlns:xlink="http://www.w3.org/1999/xlink" xmlns="http://www.w3.org/2000/svg"><clipPath id="p.0"><path d="m0 0l124.438324 0l0 125.973755l-124.438324 0l0 -125.973755z" clip-rule="nonzero"/></clipPath><g clip-path="url(#p.0)"><path fill="#000000" fill-opacity="0.0" d="m0 0l124.438324 0l0 125.973755l-124.438324 0z" fill-rule="evenodd"/><path fill="#000000" fill-opacity="0.0" d="m4.1587973 23.671537l0 0c0 -10.698012 8.672453 -19.370464 19.370468 -19.370464l77.47954 0l0 0c5.1373672 0 10.064323 2.040811 13.696991 5.673478c3.63266 3.6326666 5.673477 8.55962 5.673477 13.696987l0 79.08584c0 10.698013 -8.672455 19.370468 -19.370468 19.370468l-77.47954 0l0 0c-10.698014 0 -19.370468 -8.672455 -19.370468 -19.370468z" fill-rule="evenodd"/><path stroke="#434343" stroke-width="8.0" stroke-linejoin="round" stroke-linecap="butt" d="m4.1587973 23.671537l0 0c0 -10.698012 8.672453 -19.370464 19.370468 -19.370464l77.47954 0l0 0c5.1373672 0 10.064323 2.040811 13.696991 5.673478c3.63266 3.6326666 5.673477 8.55962 5.673477 13.696987l0 79.08584c0 10.698013 -8.672455 19.370468 -19.370468 19.370468l-77.47954 0l0 0c-10.698014 0 -19.370468 -8.672455 -19.370468 -19.370468z" fill-rule="evenodd"/><path fill="#434343" d="m52.735466 111.21445l0 -79.296875l-28.328127 0l0 -16.140625l75.84375 0l0 16.140625l-28.25 0l0 79.296875l-19.265625 0z" fill-rule="nonzero"/><path fill="#000000" fill-opacity="0.0" d="m15.913385 62.732285l29.76378 0.15747833" fill-rule="evenodd"/><path stroke="#434343" stroke-width="12.0" stroke-linejoin="round" stroke-linecap="butt" d="m15.913385 62.732285l29.76378 0.15747833" fill-rule="evenodd"/><path fill="#000000" fill-opacity="0.0" d="m15.913385 86.62992l29.76378 0.15747833" fill-rule="evenodd"/><path stroke="#434343" stroke-width="12.0" stroke-linejoin="round" stroke-linecap="butt" d="m15.913385 86.62992l29.76378 0.15747833" fill-rule="evenodd"/><path fill="#000000" fill-opacity="0.0" d="m77.57163 62.730972l29.763779 0.15747833" fill-rule="evenodd"/><path stroke="#434343" stroke-width="12.0" stroke-linejoin="round" stroke-linecap="butt" d="m77.57163 62.730972l29.763779 0.15747833" fill-rule="evenodd"/><path fill="#000000" fill-opacity="0.0" d="m77.34466 86.78745l29.763779 0.15748596" fill-rule="evenodd"/><path stroke="#434343" stroke-width="12.0" stroke-linejoin="round" stroke-linecap="butt" d="m77.34466 86.78745l29.763779 0.15748596" fill-rule="evenodd"/></g></svg>